<mxfile host="app.diagrams.net" modified="2021-01-17T08:47:42.895Z" agent="5.0 (Windows NT 10.0; Win64; x64) AppleWebKit/537.36 (KHTML, like Gecko) Chrome/87.0.4280.141 Safari/537.36" etag="__3r0HRguM_K_jpp_nBd" version="14.2.4" type="github">
  <diagram id="fvh4mmRdux-fAGCtwJcO" name="Page-1">
    <mxGraphModel dx="1422" dy="794" grid="1" gridSize="10" guides="1" tooltips="1" connect="1" arrows="1" fold="1" page="1" pageScale="1" pageWidth="850" pageHeight="1100" math="0" shadow="0">
      <root>
        <mxCell id="0" />
        <mxCell id="1" parent="0" />
        <mxCell id="DsgTAMmdHP6PTjedlVeL-1" value="Reyes Internet Cafe" style="text;html=1;strokeColor=none;fillColor=none;align=center;verticalAlign=middle;whiteSpace=wrap;rounded=0;fontStyle=1;fontSize=22;" vertex="1" parent="1">
          <mxGeometry x="350" y="20" width="235" height="20" as="geometry" />
        </mxCell>
        <mxCell id="DsgTAMmdHP6PTjedlVeL-4" style="edgeStyle=orthogonalEdgeStyle;rounded=0;orthogonalLoop=1;jettySize=auto;html=1;" edge="1" parent="1" source="DsgTAMmdHP6PTjedlVeL-2" target="DsgTAMmdHP6PTjedlVeL-3">
          <mxGeometry relative="1" as="geometry" />
        </mxCell>
        <mxCell id="DsgTAMmdHP6PTjedlVeL-2" value="Server" style="fontColor=#0066CC;verticalAlign=top;verticalLabelPosition=bottom;labelPosition=center;align=center;html=1;outlineConnect=0;fillColor=#CCCCCC;strokeColor=#6881B3;gradientColor=none;gradientDirection=north;strokeWidth=2;shape=mxgraph.networks.pc;" vertex="1" parent="1">
          <mxGeometry x="250" y="320" width="100" height="70" as="geometry" />
        </mxCell>
        <mxCell id="DsgTAMmdHP6PTjedlVeL-3" value="Hub" style="fontColor=#0066CC;verticalAlign=top;verticalLabelPosition=bottom;labelPosition=center;align=center;html=1;outlineConnect=0;fillColor=#CCCCCC;strokeColor=#6881B3;gradientColor=none;gradientDirection=north;strokeWidth=2;shape=mxgraph.networks.hub;" vertex="1" parent="1">
          <mxGeometry x="440" y="340" width="100" height="30" as="geometry" />
        </mxCell>
        <mxCell id="DsgTAMmdHP6PTjedlVeL-5" value="PC1" style="fontColor=#0066CC;verticalAlign=top;verticalLabelPosition=bottom;labelPosition=center;align=center;html=1;outlineConnect=0;fillColor=#CCCCCC;strokeColor=#6881B3;gradientColor=none;gradientDirection=north;strokeWidth=2;shape=mxgraph.networks.pc;" vertex="1" parent="1">
          <mxGeometry x="700" y="110" width="100" height="70" as="geometry" />
        </mxCell>
        <mxCell id="DsgTAMmdHP6PTjedlVeL-6" value="PC2" style="fontColor=#0066CC;verticalAlign=top;verticalLabelPosition=bottom;labelPosition=center;align=center;html=1;outlineConnect=0;fillColor=#CCCCCC;strokeColor=#6881B3;gradientColor=none;gradientDirection=north;strokeWidth=2;shape=mxgraph.networks.pc;" vertex="1" parent="1">
          <mxGeometry x="700" y="220" width="100" height="70" as="geometry" />
        </mxCell>
        <mxCell id="DsgTAMmdHP6PTjedlVeL-7" value="PC4" style="fontColor=#0066CC;verticalAlign=top;verticalLabelPosition=bottom;labelPosition=center;align=center;html=1;outlineConnect=0;fillColor=#CCCCCC;strokeColor=#6881B3;gradientColor=none;gradientDirection=north;strokeWidth=2;shape=mxgraph.networks.pc;" vertex="1" parent="1">
          <mxGeometry x="700" y="440" width="100" height="70" as="geometry" />
        </mxCell>
        <mxCell id="DsgTAMmdHP6PTjedlVeL-8" value="PC3" style="fontColor=#0066CC;verticalAlign=top;verticalLabelPosition=bottom;labelPosition=center;align=center;html=1;outlineConnect=0;fillColor=#CCCCCC;strokeColor=#6881B3;gradientColor=none;gradientDirection=north;strokeWidth=2;shape=mxgraph.networks.pc;" vertex="1" parent="1">
          <mxGeometry x="700" y="330" width="100" height="70" as="geometry" />
        </mxCell>
        <mxCell id="DsgTAMmdHP6PTjedlVeL-9" value="PC5" style="fontColor=#0066CC;verticalAlign=top;verticalLabelPosition=bottom;labelPosition=center;align=center;html=1;outlineConnect=0;fillColor=#CCCCCC;strokeColor=#6881B3;gradientColor=none;gradientDirection=north;strokeWidth=2;shape=mxgraph.networks.pc;" vertex="1" parent="1">
          <mxGeometry x="700" y="550" width="100" height="70" as="geometry" />
        </mxCell>
        <mxCell id="DsgTAMmdHP6PTjedlVeL-15" value="" style="strokeColor=#6881B3;edgeStyle=none;rounded=0;endArrow=none;html=1;strokeWidth=2;exitX=1;exitY=0.5;exitDx=0;exitDy=0;exitPerimeter=0;entryX=0;entryY=0.5;entryDx=0;entryDy=0;entryPerimeter=0;" edge="1" target="DsgTAMmdHP6PTjedlVeL-5" parent="1" source="DsgTAMmdHP6PTjedlVeL-3">
          <mxGeometry relative="1" as="geometry">
            <mxPoint x="470" y="510" as="sourcePoint" />
            <mxPoint x="470" y="570" as="targetPoint" />
          </mxGeometry>
        </mxCell>
        <mxCell id="DsgTAMmdHP6PTjedlVeL-21" value="" style="strokeColor=#6881B3;edgeStyle=none;rounded=0;endArrow=none;html=1;strokeWidth=2;exitX=1;exitY=0.5;exitDx=0;exitDy=0;exitPerimeter=0;entryX=0;entryY=0.5;entryDx=0;entryDy=0;entryPerimeter=0;" edge="1" parent="1" source="DsgTAMmdHP6PTjedlVeL-3" target="DsgTAMmdHP6PTjedlVeL-6">
          <mxGeometry relative="1" as="geometry">
            <mxPoint x="300" y="520" as="sourcePoint" />
            <mxPoint x="300" y="580" as="targetPoint" />
          </mxGeometry>
        </mxCell>
        <mxCell id="DsgTAMmdHP6PTjedlVeL-22" value="" style="strokeColor=#6881B3;edgeStyle=none;rounded=0;endArrow=none;html=1;strokeWidth=2;exitX=1;exitY=0.5;exitDx=0;exitDy=0;exitPerimeter=0;" edge="1" parent="1" source="DsgTAMmdHP6PTjedlVeL-3" target="DsgTAMmdHP6PTjedlVeL-8">
          <mxGeometry relative="1" as="geometry">
            <mxPoint x="310" y="530" as="sourcePoint" />
            <mxPoint x="310" y="590" as="targetPoint" />
          </mxGeometry>
        </mxCell>
        <mxCell id="DsgTAMmdHP6PTjedlVeL-23" value="" style="strokeColor=#6881B3;edgeStyle=none;rounded=0;endArrow=none;html=1;strokeWidth=2;exitX=1;exitY=0.5;exitDx=0;exitDy=0;exitPerimeter=0;entryX=0;entryY=0.5;entryDx=0;entryDy=0;entryPerimeter=0;" edge="1" parent="1" source="DsgTAMmdHP6PTjedlVeL-3" target="DsgTAMmdHP6PTjedlVeL-7">
          <mxGeometry relative="1" as="geometry">
            <mxPoint x="320" y="540" as="sourcePoint" />
            <mxPoint x="320" y="600" as="targetPoint" />
          </mxGeometry>
        </mxCell>
        <mxCell id="DsgTAMmdHP6PTjedlVeL-24" value="" style="strokeColor=#6881B3;edgeStyle=none;rounded=0;endArrow=none;html=1;strokeWidth=2;exitX=1;exitY=0.5;exitDx=0;exitDy=0;exitPerimeter=0;entryX=0;entryY=0.5;entryDx=0;entryDy=0;entryPerimeter=0;" edge="1" parent="1" source="DsgTAMmdHP6PTjedlVeL-3" target="DsgTAMmdHP6PTjedlVeL-9">
          <mxGeometry relative="1" as="geometry">
            <mxPoint x="330" y="550" as="sourcePoint" />
            <mxPoint x="330" y="610" as="targetPoint" />
          </mxGeometry>
        </mxCell>
        <mxCell id="DsgTAMmdHP6PTjedlVeL-28" style="edgeStyle=orthogonalEdgeStyle;rounded=0;orthogonalLoop=1;jettySize=auto;html=1;" edge="1" parent="1" source="DsgTAMmdHP6PTjedlVeL-26" target="DsgTAMmdHP6PTjedlVeL-2">
          <mxGeometry relative="1" as="geometry" />
        </mxCell>
        <mxCell id="DsgTAMmdHP6PTjedlVeL-26" value="" style="fontColor=#0066CC;verticalAlign=top;verticalLabelPosition=bottom;labelPosition=center;align=center;html=1;outlineConnect=0;fillColor=#CCCCCC;strokeColor=#6881B3;gradientColor=none;gradientDirection=north;strokeWidth=2;shape=mxgraph.networks.printer;" vertex="1" parent="1">
          <mxGeometry x="60" y="305" width="100" height="100" as="geometry" />
        </mxCell>
        <mxCell id="DsgTAMmdHP6PTjedlVeL-32" style="edgeStyle=orthogonalEdgeStyle;rounded=0;orthogonalLoop=1;jettySize=auto;html=1;" edge="1" parent="1" source="DsgTAMmdHP6PTjedlVeL-29" target="DsgTAMmdHP6PTjedlVeL-31">
          <mxGeometry relative="1" as="geometry" />
        </mxCell>
        <mxCell id="DsgTAMmdHP6PTjedlVeL-29" value="Internet" style="verticalLabelPosition=middle;verticalAlign=middle;html=1;shape=mxgraph.basic.8_point_star;labelPosition=center;align=center;" vertex="1" parent="1">
          <mxGeometry x="440" y="80" width="100" height="100" as="geometry" />
        </mxCell>
        <mxCell id="DsgTAMmdHP6PTjedlVeL-33" style="edgeStyle=orthogonalEdgeStyle;rounded=0;orthogonalLoop=1;jettySize=auto;html=1;" edge="1" parent="1" source="DsgTAMmdHP6PTjedlVeL-31" target="DsgTAMmdHP6PTjedlVeL-3">
          <mxGeometry relative="1" as="geometry" />
        </mxCell>
        <mxCell id="DsgTAMmdHP6PTjedlVeL-31" value="" style="fontColor=#0066CC;verticalAlign=top;verticalLabelPosition=bottom;labelPosition=center;align=center;html=1;outlineConnect=0;fillColor=#CCCCCC;strokeColor=#6881B3;gradientColor=none;gradientDirection=north;strokeWidth=2;shape=mxgraph.networks.modem;" vertex="1" parent="1">
          <mxGeometry x="440" y="240" width="100" height="30" as="geometry" />
        </mxCell>
      </root>
    </mxGraphModel>
  </diagram>
</mxfile>
